<?xml version="1.0" encoding="UTF-8" standalone="no"?>
<!-- Created with Inkscape (http://www.inkscape.org/) -->

<svg
   xmlns:dc="http://purl.org/dc/elements/1.1/"
   xmlns:cc="http://creativecommons.org/ns#"
   xmlns:rdf="http://www.w3.org/1999/02/22-rdf-syntax-ns#"
   xmlns:svg="http://www.w3.org/2000/svg"
   xmlns="http://www.w3.org/2000/svg"
   xmlns:sodipodi="http://sodipodi.sourceforge.net/DTD/sodipodi-0.dtd"
   xmlns:inkscape="http://www.inkscape.org/namespaces/inkscape"
   version="1.1"
   id="svg4492"
   xml:space="preserve"
   width="800"
   height="800"
   viewBox="0 0 800 800"
   sodipodi:docname="blue-tiles-sphere.svg"
   inkscape:version="0.92.4 (5da689c313, 2019-01-14)"><metadata
     id="metadata4498"><rdf:RDF><cc:Work
         rdf:about=""><dc:format>image/svg+xml</dc:format><dc:type
           rdf:resource="http://purl.org/dc/dcmitype/StillImage" /><dc:title></dc:title></cc:Work></rdf:RDF></metadata><defs
     id="defs4496"><clipPath
       clipPathUnits="userSpaceOnUse"
       id="clipPath4508"><path
         d="M 0,600 H 600 V 0 H 0 Z"
         id="path4506"
         inkscape:connector-curvature="0" /></clipPath></defs><sodipodi:namedview
     pagecolor="#ffffff"
     bordercolor="#666666"
     borderopacity="1"
     objecttolerance="10"
     gridtolerance="10"
     guidetolerance="10"
     inkscape:pageopacity="0"
     inkscape:pageshadow="2"
     inkscape:window-width="1920"
     inkscape:window-height="1018"
     id="namedview4494"
     showgrid="false"
     inkscape:zoom="0.82932119"
     inkscape:cx="459.32203"
     inkscape:cy="383.05085"
     inkscape:window-x="-8"
     inkscape:window-y="-8"
     inkscape:window-maximized="1"
     inkscape:current-layer="g4500" /><g
     id="g4500"
     inkscape:groupmode="layer"
     inkscape:label="tiles-geometric-2-publicdomainvectors.org"
     transform="matrix(1.3333333,0,0,-1.3333333,0,800)"><g
       id="g4502"><g
         id="g4504"
         clip-path="url(#clipPath4508)"><path
           d="M 2.574,584.521 H 14.558 V 572.275 H 2.574 Z"
           style="fill:#00adef;fill-opacity:1;fill-rule:evenodd;stroke:none"
           id="path4510"
           inkscape:connector-curvature="0" /><path
           d="m 41.524,584.521 h 11.985 c 0,0 0.008,-8.128 -0.13,-12.099 -3.902,-0.135 -11.855,-0.146 -11.855,-0.146 z"
           style="fill:#00adef;fill-opacity:1;fill-rule:evenodd;stroke:none"
           id="path4512"
           inkscape:connector-curvature="0" /><path
           d="m 79.822,585.383 c 3.768,0.301 7.511,0.677 11.228,1.112 -0.422,-3.48 -0.959,-6.889 -1.564,-10.233 -3.591,-0.62 -7.202,-1.182 -10.832,-1.683 0.479,3.532 0.874,7.133 1.168,10.804"
           style="fill:#00ace2;fill-opacity:1;fill-rule:evenodd;stroke:none"
           id="path4514"
           inkscape:connector-curvature="0" /><path
           d="m 115.844,590.317 c 3.663,0.668 7.324,1.403 10.991,2.155 -0.726,-2.892 -1.563,-5.714 -2.472,-8.479 -3.604,-0.917 -7.196,-1.809 -10.777,-2.679 0.838,2.938 1.603,5.936 2.258,9.003"
           style="fill:#00adef;fill-opacity:1;fill-rule:evenodd;stroke:none"
           id="path4516"
           inkscape:connector-curvature="0" /><path
           d="m 161.526,599.077 c -0.723,-1.992 -1.516,-3.936 -2.35,-5.845 -3.348,-0.882 -6.674,-1.761 -9.974,-2.651 0.986,2.399 1.901,4.856 2.734,7.373 1.65,0.376 3.306,0.75 4.965,1.123 z"
           style="fill:#00adef;fill-opacity:1;fill-rule:evenodd;stroke:none"
           id="path4518"
           inkscape:connector-curvature="0" /><path
           d="m 411.68,599.077 c 0.302,-0.693 0.612,-1.381 0.929,-2.062 -2.806,0.698 -5.633,1.388 -8.479,2.062 z"
           style="fill:#0090c9;fill-opacity:1;fill-rule:evenodd;stroke:none"
           id="path4520"
           inkscape:connector-curvature="0" /><path
           d="m 435.893,597.661 c 3.762,-0.835 7.502,-1.683 11.225,-2.504 0.799,-2.697 1.671,-5.337 2.643,-7.909 -3.692,0.972 -7.405,1.969 -11.14,2.985 -0.991,2.415 -1.896,4.894 -2.728,7.428"
           style="fill:#00adef;fill-opacity:1;fill-rule:evenodd;stroke:none"
           id="path4522"
           inkscape:connector-curvature="0" /><path
           d="m 471.943,590.085 c 3.2,-0.586 6.401,-1.13 9.608,-1.648 0.569,-3.245 1.227,-6.423 1.988,-9.535 -3.123,0.672 -6.243,1.382 -9.368,2.121 -0.836,2.954 -1.579,5.977 -2.228,9.062"
           style="fill:#45c3f3;fill-opacity:1;fill-rule:evenodd;stroke:none"
           id="path4524"
           inkscape:connector-curvature="0" /><path
           d="m 506.592,585.394 c 3.792,-0.302 7.618,-0.528 11.48,-0.678 0.146,-3.867 0.381,-7.663 0.726,-11.384 -3.709,0.348 -7.386,0.775 -11.034,1.263 -0.478,3.531 -0.879,7.129 -1.172,10.799"
           style="fill:#68cef6;fill-opacity:1;fill-rule:evenodd;stroke:none"
           id="path4526"
           inkscape:connector-curvature="0" /><path
           d="m 544.883,584.521 h 11.985 v -12.246 h -11.985 z"
           style="fill:#73d2f6;fill-opacity:1;fill-rule:evenodd;stroke:none"
           id="path4528"
           inkscape:connector-curvature="0" /><path
           d="m 583.832,584.521 h 11.984 v -12.246 h -11.984 z"
           style="fill:#00adef;fill-opacity:1;fill-rule:evenodd;stroke:none"
           id="path4530"
           inkscape:connector-curvature="0" /><path
           d="m 2.574,544.726 h 11.984 c 0,0 0.02,-8.153 -0.078,-12.18 -3.921,-0.102 -11.906,-0.064 -11.906,-0.064 z"
           style="fill:#3ebdee;fill-opacity:1;fill-rule:evenodd;stroke:none"
           id="path4532"
           inkscape:connector-curvature="0" /><path
           d="m 40.428,545.778 c 3.611,0.347 7.172,0.811 10.681,1.366 -0.52,-3.576 -1.145,-7.112 -1.829,-10.617 -3.344,-0.703 -6.733,-1.331 -10.17,-1.846 0.512,3.662 0.962,7.359 1.318,11.097"
           style="fill:#56c9f4;fill-opacity:1;fill-rule:evenodd;stroke:none"
           id="path4534"
           inkscape:connector-curvature="0" /><path
           d="m 74.068,552 c 3.337,0.886 6.663,1.839 9.983,2.841 -0.972,-3.068 -2.046,-6.104 -3.185,-9.118 -3.199,-1.167 -6.409,-2.255 -9.621,-3.294 1.018,3.163 1.947,6.356 2.823,9.571"
           style="fill:#2ebcf2;fill-opacity:1;fill-rule:evenodd;stroke:none"
           id="path4536"
           inkscape:connector-curvature="0" /><path
           d="m 106.695,562.416 c 3.42,1.238 6.874,2.473 10.346,3.756 -1.256,-2.579 -2.588,-5.14 -3.975,-7.698 -3.42,-1.427 -6.815,-2.809 -10.171,-4.185 1.334,2.695 2.602,5.403 3.8,8.127"
           style="fill:#1ab5f1;fill-opacity:1;fill-rule:evenodd;stroke:none"
           id="path4538"
           inkscape:connector-curvature="0" /><path
           d="m 141.432,575.071 c 3.297,1.174 6.633,2.334 10.003,3.498 -1.298,-2.145 -2.686,-4.268 -4.092,-6.418 -3.394,-1.259 -6.735,-2.553 -10.038,-3.846 1.437,2.252 2.814,4.505 4.127,6.766"
           style="fill:#7bd5f7;fill-opacity:1;fill-rule:evenodd;stroke:none"
           id="path4540"
           inkscape:connector-curvature="0" /><path
           d="m 178.69,587.217 c 4.225,1.226 8.506,2.407 12.845,3.522 -1.119,-1.739 -2.27,-3.492 -3.474,-5.249 -4.436,-1.232 -8.806,-2.53 -13.116,-3.858 1.303,1.864 2.542,3.729 3.745,5.585"
           style="fill:#00adeb;fill-opacity:1;fill-rule:evenodd;stroke:none"
           id="path4542"
           inkscape:connector-curvature="0" /><path
           d="m 235.797,599.077 c -0.579,-1.205 -1.18,-2.418 -1.8,-3.641 -4.921,-0.768 -9.797,-1.619 -14.623,-2.559 0.909,1.55 1.784,3.087 2.629,4.611 3.073,0.563 6.165,1.093 9.274,1.589 z"
           style="fill:#00ace2;fill-opacity:1;fill-rule:evenodd;stroke:none"
           id="path4544"
           inkscape:connector-curvature="0" /><path
           d="m 333.187,599.077 c 0.143,-0.389 0.288,-0.78 0.434,-1.172 -4.412,0.467 -8.844,0.858 -13.293,1.172 z"
           style="fill:#16b4f0;fill-opacity:1;fill-rule:evenodd;stroke:none"
           id="path4546"
           inkscape:connector-curvature="0" /><path
           d="m 364.382,597.515 c 4.647,-0.849 9.247,-1.774 13.799,-2.765 0.972,-1.614 1.988,-3.236 3.041,-4.87 -4.687,1.075 -9.424,2.094 -14.214,3.027 -0.908,1.55 -1.775,3.089 -2.626,4.608"
           style="fill:#80d6f7;fill-opacity:1;fill-rule:evenodd;stroke:none"
           id="path4548"
           inkscape:connector-curvature="0" /><path
           d="m 407.71,587.255 c 4.191,-1.2 8.325,-2.453 12.399,-3.748 1.265,-1.975 2.573,-3.958 3.944,-5.938 -4.136,1.412 -8.338,2.776 -12.599,4.105 -1.297,1.866 -2.545,3.725 -3.744,5.581"
           style="fill:#00adef;fill-opacity:1;fill-rule:evenodd;stroke:none"
           id="path4550"
           inkscape:connector-curvature="0" /><path
           d="m 446.387,574.611 c 3.717,-1.326 7.391,-2.65 11.014,-3.995 1.319,-2.406 2.673,-4.818 4.095,-7.221 -3.605,1.48 -7.274,2.926 -10.982,4.405 -1.436,2.266 -2.797,4.546 -4.127,6.811"
           style="fill:#51c7f4;fill-opacity:1;fill-rule:evenodd;stroke:none"
           id="path4552"
           inkscape:connector-curvature="0" /><path
           d="m 481.005,561.999 c 2.969,-1.056 5.919,-2.092 8.864,-3.089 1.126,-2.868 2.308,-5.724 3.566,-8.559 -2.872,1.122 -5.751,2.288 -8.654,3.47 -1.327,2.711 -2.575,5.441 -3.776,8.178"
           style="fill:#00adef;fill-opacity:1;fill-rule:evenodd;stroke:none"
           id="path4554"
           inkscape:connector-curvature="0" /><path
           d="m 512.359,552.027 c 3.335,-0.885 6.69,-1.713 10.072,-2.446 0.734,-3.371 1.547,-6.71 2.415,-10.025 -3.24,0.89 -6.46,1.855 -9.66,2.906 -1.002,3.166 -1.963,6.349 -2.827,9.565"
           style="fill:#69cff6;fill-opacity:1;fill-rule:evenodd;stroke:none"
           id="path4556"
           inkscape:connector-curvature="0" /><path
           d="m 545.99,545.789 c 3.653,-0.37 7.366,-0.641 11.14,-0.823 0.161,-3.905 0.427,-7.765 0.771,-11.584 -3.588,0.332 -7.117,0.777 -10.588,1.315 -0.525,3.658 -0.964,7.356 -1.323,11.092"
           style="fill:#00adef;fill-opacity:1;fill-rule:evenodd;stroke:none"
           id="path4558"
           inkscape:connector-curvature="0" /><path
           d="m 583.832,544.726 h 11.984 v -12.244 h -11.984 z"
           style="fill:#00adef;fill-opacity:1;fill-rule:evenodd;stroke:none"
           id="path4560"
           inkscape:connector-curvature="0" /><path
           d="m 2.057,505.29 c 3.642,0.215 7.198,0.543 10.673,0.965 -0.405,-3.805 -0.888,-7.592 -1.41,-11.366 -3.28,-0.557 -6.65,-0.982 -10.097,-1.321 0.332,3.888 0.614,7.794 0.834,11.722"
           style="fill:#00adef;fill-opacity:1;fill-rule:evenodd;stroke:none"
           id="path4562"
           inkscape:connector-curvature="0" /><path
           d="m 34.566,510.508 c 3.06,0.819 6.076,1.742 9.054,2.746 -0.979,-3.435 -2.006,-6.872 -3.084,-10.312 -2.826,-1.09 -5.679,-2.122 -8.575,-3.056 0.914,3.539 1.777,7.081 2.605,10.622"
           style="fill:#73d2f6;fill-opacity:1;fill-rule:evenodd;stroke:none"
           id="path4564"
           inkscape:connector-curvature="0" /><path
           d="m 63.412,521.111 c 2.935,1.326 5.875,2.708 8.825,4.141 -1.411,-3.096 -2.879,-6.207 -4.373,-9.35 -2.841,-1.527 -5.665,-3.005 -8.478,-4.432 1.399,3.225 2.728,6.444 4.026,9.641"
           style="fill:#0a6088;fill-opacity:1;fill-rule:evenodd;stroke:none"
           id="path4566"
           inkscape:connector-curvature="0" /><path
           d="m 92.922,535.695 c 3.214,1.65 6.472,3.333 9.793,5.01 -1.675,-2.756 -3.394,-5.552 -5.135,-8.403 -3.273,-1.774 -6.478,-3.547 -9.626,-5.302 1.692,2.939 3.352,5.833 4.968,8.695"
           style="fill:#3ab9ea;fill-opacity:1;fill-rule:evenodd;stroke:none"
           id="path4568"
           inkscape:connector-curvature="0" /><path
           d="m 126.665,552.367 c 3.322,1.534 6.706,3.05 10.152,4.544 -1.704,-2.428 -3.448,-4.909 -5.204,-7.471 -3.474,-1.576 -6.879,-3.174 -10.208,-4.805 1.778,2.642 3.543,5.21 5.26,7.732"
           style="fill:#2bbae9;fill-opacity:1;fill-rule:evenodd;stroke:none"
           id="path4570"
           inkscape:connector-curvature="0" /><path
           d="m 165.322,568.105 c 4.516,1.58 9.116,3.114 13.805,4.561 -1.447,-2.102 -2.931,-4.27 -4.436,-6.517 -4.804,-1.559 -9.523,-3.161 -14.138,-4.846 1.61,2.346 3.212,4.603 4.769,6.802"
           style="fill:#7ad4f7;fill-opacity:1;fill-rule:evenodd;stroke:none"
           id="path4572"
           inkscape:connector-curvature="0" /><path
           d="m 212.604,581.427 c 5.212,1.109 10.49,2.128 15.827,3.044 -0.91,-1.834 -1.845,-3.741 -2.781,-5.734 -5.546,-0.965 -11.022,-2.059 -16.422,-3.253 1.141,2.062 2.274,4.037 3.376,5.943"
           style="fill:#4cc5f4;fill-opacity:1;fill-rule:evenodd;stroke:none"
           id="path4574"
           inkscape:connector-curvature="0" /><path
           d="m 265.592,588.964 c 5.628,0.402 11.28,0.677 16.943,0.844 -0.158,-1.709 -0.318,-3.492 -0.479,-5.353 -5.917,-0.168 -11.819,-0.471 -17.693,-0.906 0.416,1.883 0.818,3.688 1.229,5.415"
           style="fill:#7ad4f7;fill-opacity:1;fill-rule:evenodd;stroke:none"
           id="path4576"
           inkscape:connector-curvature="0" /><path
           d="m 320.764,588.977 c 5.61,-0.4 11.192,-0.924 16.733,-1.562 0.638,-1.766 1.283,-3.607 1.942,-5.526 -5.776,0.686 -11.597,1.24 -17.453,1.674 -0.408,1.884 -0.823,3.684 -1.222,5.414"
           style="fill:#00adef;fill-opacity:1;fill-rule:evenodd;stroke:none"
           id="path4578"
           inkscape:connector-curvature="0" /><path
           d="m 373.763,581.461 c 5.169,-1.098 10.262,-2.3 15.278,-3.593 1.278,-1.983 2.574,-4.042 3.896,-6.18 -5.188,1.359 -10.454,2.653 -15.801,3.833 -1.144,2.059 -2.266,4.039 -3.373,5.94"
           style="fill:#62cdf5;fill-opacity:1;fill-rule:evenodd;stroke:none"
           id="path4580"
           inkscape:connector-curvature="0" /><path
           d="m 421.069,568.153 c 4.458,-1.561 8.834,-3.167 13.114,-4.848 1.651,-2.289 3.319,-4.655 5.011,-7.093 -4.354,1.769 -8.803,3.499 -13.359,5.143 -1.607,2.345 -3.203,4.605 -4.766,6.798"
           style="fill:#1397cd;fill-opacity:1;fill-rule:evenodd;stroke:none"
           id="path4582"
           inkscape:connector-curvature="0" /><path
           d="m 461.159,551.77 c 3.717,-1.731 7.362,-3.467 10.934,-5.215 1.711,-2.642 3.467,-5.324 5.245,-8.066 -3.564,1.835 -7.194,3.688 -10.918,5.513 -1.776,2.655 -3.554,5.227 -5.261,7.768"
           style="fill:#008fc8;fill-opacity:1;fill-rule:evenodd;stroke:none"
           id="path4584"
           inkscape:connector-curvature="0" /><path
           d="m 494.703,535.133 c 2.766,-1.412 5.495,-2.812 8.194,-4.198 1.546,-2.959 3.115,-5.96 4.741,-8.983 -2.637,1.447 -5.291,2.948 -7.991,4.452 -1.695,2.943 -3.324,5.862 -4.944,8.729"
           style="fill:#00adef;fill-opacity:1;fill-rule:evenodd;stroke:none"
           id="path4586"
           inkscape:connector-curvature="0" /><path
           d="m 523.027,521.152 c 2.915,-1.314 5.83,-2.573 8.758,-3.764 1.17,-3.299 2.378,-6.611 3.638,-9.933 -2.798,1.278 -5.573,2.658 -8.365,4.06 -1.37,3.238 -2.729,6.442 -4.031,9.637"
           style="fill:#00adef;fill-opacity:1;fill-rule:evenodd;stroke:none"
           id="path4588"
           inkscape:connector-curvature="0" /><path
           d="m 551.87,510.534 c 3.072,-0.856 6.211,-1.575 9.393,-2.238 0.64,-3.656 1.345,-7.302 2.096,-10.941 -3.015,0.746 -5.969,1.62 -8.88,2.56 -0.916,3.538 -1.791,7.077 -2.609,10.619"
           style="fill:#00ade4;fill-opacity:1;fill-rule:evenodd;stroke:none"
           id="path4590"
           inkscape:connector-curvature="0" /><path
           d="m 584.359,505.297 c 3.723,-0.236 7.544,-0.347 11.461,-0.364 0.016,-4.056 0.095,-8.086 0.243,-12.092 -3.718,0.148 -7.338,0.383 -10.863,0.738 -0.345,3.885 -0.627,7.791 -0.841,11.718"
           style="fill:#68cef6;fill-opacity:1;fill-rule:evenodd;stroke:none"
           id="path4592"
           inkscape:connector-curvature="0" /><path
           d="m -0.484,467.798 c 2.585,0.486 5.111,1.048 7.577,1.677 -0.617,-3.311 -1.28,-6.624 -1.931,-9.953 -1.847,-0.519 -3.729,-1.008 -5.646,-1.454 z"
           style="fill:#18b0eb;fill-opacity:1;fill-rule:evenodd;stroke:none"
           id="path4594"
           inkscape:connector-curvature="0" /><path
           d="m 25.167,475.662 c 2.543,1.096 5.05,2.283 7.531,3.535 -1.082,-3.167 -2.175,-6.359 -3.269,-9.581 -2.353,-1.285 -4.73,-2.502 -7.143,-3.633 0.977,3.245 1.93,6.474 2.881,9.679"
           style="fill:#27baf1;fill-opacity:1;fill-rule:evenodd;stroke:none"
           id="path4596"
           inkscape:connector-curvature="0" /><path
           d="m 49.477,488.733 c 2.547,1.566 5.106,3.2 7.699,4.867 -1.445,-3.059 -2.905,-6.162 -4.354,-9.317 -2.494,-1.698 -4.96,-3.344 -7.401,-4.941 1.358,3.171 2.716,6.299 4.056,9.391"
           style="fill:#69cff6;fill-opacity:1;fill-rule:evenodd;stroke:none"
           id="path4598"
           inkscape:connector-curvature="0" /><path
           d="m 75.915,505.68 c 3,1.906 6.07,3.835 9.231,5.758 -1.689,-2.943 -3.371,-5.962 -5.057,-9.049 -3.11,-1.956 -6.124,-3.917 -9.065,-5.847 1.63,3.11 3.255,6.159 4.891,9.138"
           style="fill:#00adef;fill-opacity:1;fill-rule:evenodd;stroke:none"
           id="path4600"
           inkscape:connector-curvature="0" /><path
           d="m 108.641,524.863 c 3.353,1.77 6.794,3.518 10.315,5.258 -1.726,-2.811 -3.463,-5.706 -5.193,-8.698 -3.539,-1.772 -6.985,-3.567 -10.342,-5.37 1.734,3.026 3.486,5.955 5.22,8.81"
           style="fill:#00ade8;fill-opacity:1;fill-rule:evenodd;stroke:none"
           id="path4602"
           inkscape:connector-curvature="0" /><path
           d="m 148.867,543.207 c 4.847,1.872 9.819,3.675 14.913,5.398 -1.51,-2.627 -3.019,-5.358 -4.546,-8.187 -5.2,-1.79 -10.274,-3.643 -15.211,-5.569 1.619,2.886 3.241,5.667 4.844,8.358"
           style="fill:#00adef;fill-opacity:1;fill-rule:evenodd;stroke:none"
           id="path4604"
           inkscape:connector-curvature="0" /><path
           d="m 200.847,559.109 c 5.861,1.364 11.822,2.599 17.877,3.699 -0.977,-2.438 -1.957,-4.981 -2.933,-7.634 -6.261,-1.165 -12.424,-2.446 -18.476,-3.859 1.181,2.706 2.352,5.306 3.532,7.794"
           style="fill:#00adef;fill-opacity:1;fill-rule:evenodd;stroke:none"
           id="path4606"
           inkscape:connector-curvature="0" /><path
           d="m 261.284,568.317 c 6.492,0.504 13.02,0.843 19.57,1.043 -0.176,-2.338 -0.345,-4.777 -0.514,-7.319 -6.819,-0.217 -13.613,-0.575 -20.37,-1.095 0.427,2.564 0.887,5.016 1.314,7.371"
           style="fill:#79d4f7;fill-opacity:1;fill-rule:evenodd;stroke:none"
           id="path4608"
           inkscape:connector-curvature="0" /><path
           d="m 325.046,568.333 c 6.465,-0.501 12.886,-1.132 19.246,-1.922 0.679,-2.387 1.374,-4.872 2.065,-7.466 -6.608,0.822 -13.282,1.499 -20.005,2.017 -0.442,2.56 -0.897,5.013 -1.306,7.371"
           style="fill:#07afef;fill-opacity:1;fill-rule:evenodd;stroke:none"
           id="path4610"
           inkscape:connector-curvature="0" /><path
           d="m 385.503,559.152 c 5.79,-1.343 11.48,-2.783 17.057,-4.333 1.334,-2.554 2.685,-5.204 4.038,-7.965 -5.738,1.614 -11.594,3.128 -17.571,4.505 -1.172,2.707 -2.354,5.301 -3.524,7.793"
           style="fill:#00adef;fill-opacity:1;fill-rule:evenodd;stroke:none"
           id="path4612"
           inkscape:connector-curvature="0" /><path
           d="m 437.515,543.264 c 4.769,-1.825 9.404,-3.74 13.922,-5.693 1.684,-2.741 3.356,-5.585 5.049,-8.516 -4.576,2.008 -9.287,3.965 -14.13,5.853 -1.618,2.887 -3.228,5.674 -4.841,8.356"
           style="fill:#1fb7f1;fill-opacity:1;fill-rule:evenodd;stroke:none"
           id="path4614"
           inkscape:connector-curvature="0" /><path
           d="m 479.19,524.172 c 3.724,-1.984 7.332,-4.002 10.852,-6.009 1.721,-2.905 3.453,-5.88 5.179,-8.938 -3.496,2.047 -7.096,4.093 -10.812,6.123 -1.735,3.03 -3.489,5.962 -5.219,8.824"
           style="fill:#7ad4f7;fill-opacity:1;fill-rule:evenodd;stroke:none"
           id="path4616"
           inkscape:connector-curvature="0" /><path
           d="m 511.632,505.034 c 2.556,-1.631 5.067,-3.239 7.523,-4.839 1.554,-3.019 3.109,-6.095 4.683,-9.219 -2.393,1.618 -4.832,3.265 -7.336,4.909 -1.608,3.121 -3.25,6.16 -4.87,9.149"
           style="fill:#56c9f4;fill-opacity:1;fill-rule:evenodd;stroke:none"
           id="path4618"
           inkscape:connector-curvature="0" /><path
           d="m 536.975,488.783 c 2.513,-1.547 4.998,-3.071 7.496,-4.499 1.235,-3.124 2.486,-6.276 3.726,-9.471 -2.383,1.46 -4.759,3.003 -7.164,4.578 -1.35,3.175 -2.707,6.304 -4.058,9.392"
           style="fill:#15b4f0;fill-opacity:1;fill-rule:evenodd;stroke:none"
           id="path4620"
           inkscape:connector-curvature="0" /><path
           d="m 561.285,475.697 c 2.552,-1.094 5.136,-2.135 7.777,-3.068 0.806,-3.25 1.638,-6.51 2.473,-9.79 -2.5,0.978 -4.955,2.04 -7.366,3.179 -0.98,3.245 -1.931,6.473 -2.884,9.679"
           style="fill:#00adef;fill-opacity:1;fill-rule:evenodd;stroke:none"
           id="path4622"
           inkscape:connector-curvature="0" /><path
           d="m 588.214,467.579 c 3.105,-0.548 6.302,-1.015 9.594,-1.377 0.31,-3.427 0.647,-6.85 1.024,-10.272 -3.137,0.421 -6.179,0.938 -9.13,1.548 -0.523,3.369 -1.011,6.737 -1.488,10.101"
           style="fill:#00ace2;fill-opacity:1;fill-rule:evenodd;stroke:none"
           id="path4624"
           inkscape:connector-curvature="0" /><path
           d="m -0.484,433.298 c 0.106,0.037 0.212,0.073 0.317,0.11 -0.106,-0.514 -0.211,-1.029 -0.317,-1.545 z"
           style="fill:#00adef;fill-opacity:1;fill-rule:evenodd;stroke:none"
           id="path4626"
           inkscape:connector-curvature="0" /><path
           d="m 14.675,440.068 c 2.092,1.142 4.151,2.367 6.193,3.648 -1.263,-4.009 -2.51,-8.067 -3.723,-12.18 -1.916,-1.237 -3.848,-2.421 -5.802,-3.543 1.095,4.068 2.209,8.091 3.332,12.075"
           style="fill:#6fd1f6;fill-opacity:1;fill-rule:evenodd;stroke:none"
           id="path4628"
           inkscape:connector-curvature="0" /><path
           d="m 34.917,453.361 c 2.172,1.587 4.384,3.21 6.638,4.874 -1.656,-4.131 -3.276,-8.349 -4.867,-12.645 -2.145,-1.615 -4.255,-3.174 -6.311,-4.717 1.472,4.239 2.99,8.4 4.54,12.488"
           style="fill:#1fb7ed;fill-opacity:1;fill-rule:evenodd;stroke:none"
           id="path4630"
           inkscape:connector-curvature="0" /><path
           d="m 58.348,470.342 c 2.769,1.921 5.631,3.863 8.605,5.802 -1.95,-4.273 -3.861,-8.666 -5.721,-13.181 -2.903,-1.887 -5.691,-3.775 -8.384,-5.641 1.793,4.448 3.631,8.786 5.5,13.02"
           style="fill:#0293cc;fill-opacity:1;fill-rule:evenodd;stroke:none"
           id="path4632"
           inkscape:connector-curvature="0" /><path
           d="m 89.732,489.833 c 3.342,1.83 6.79,3.646 10.349,5.446 -2.061,-4.369 -4.086,-8.895 -6.07,-13.574 -3.556,-1.767 -6.99,-3.563 -10.313,-5.359 1.966,4.643 3.983,9.137 6.034,13.487"
           style="fill:#00adef;fill-opacity:1;fill-rule:evenodd;stroke:none"
           id="path4634"
           inkscape:connector-curvature="0" /><path
           d="m 131.065,509.104 c 5.144,2.011 10.451,3.961 15.916,5.842 -1.889,-4.368 -3.771,-8.914 -5.598,-13.657 -5.569,-1.884 -10.959,-3.848 -16.177,-5.861 1.922,4.736 3.889,9.289 5.859,13.676"
           style="fill:#00adef;fill-opacity:1;fill-rule:evenodd;stroke:none"
           id="path4636"
           inkscape:connector-curvature="0" /><path
           d="m 187.628,526.61 c 6.551,1.538 13.243,2.937 20.063,4.216 -1.284,-4.258 -2.56,-8.708 -3.828,-13.357 -7.069,-1.327 -13.995,-2.768 -20.766,-4.336 1.5,4.687 3.007,9.18 4.531,13.477"
           style="fill:#00ace2;fill-opacity:1;fill-rule:evenodd;stroke:none"
           id="path4638"
           inkscape:connector-curvature="0" /><path
           d="m 256.302,537.23 c 7.488,0.588 15.026,0.996 22.599,1.23 -0.234,-4.157 -0.462,-8.505 -0.693,-13.047 -7.937,-0.233 -15.833,-0.668 -23.669,-1.288 0.585,4.563 1.167,8.93 1.763,13.105"
           style="fill:#00adef;fill-opacity:1;fill-rule:evenodd;stroke:none"
           id="path4640"
           inkscape:connector-curvature="0" /><path
           d="m 329.997,537.249 c 7.442,-0.584 14.816,-1.345 22.105,-2.253 0.906,-4.21 1.831,-8.607 2.743,-13.204 -7.607,0.958 -15.31,1.752 -23.094,2.352 -0.578,4.564 -1.184,8.927 -1.754,13.105"
           style="fill:#00adef;fill-opacity:1;fill-rule:evenodd;stroke:none"
           id="path4642"
           inkscape:connector-curvature="0" /><path
           d="m 398.699,526.658 c 6.446,-1.509 12.74,-3.144 18.887,-4.863 1.707,-4.337 3.406,-8.861 5.088,-13.578 -6.323,1.741 -12.804,3.412 -19.448,4.964 -1.493,4.69 -2.998,9.182 -4.527,13.477"
           style="fill:#00adef;fill-opacity:1;fill-rule:evenodd;stroke:none"
           id="path4644"
           inkscape:connector-curvature="0" /><path
           d="m 455.307,509.166 c 5.03,-1.955 9.891,-3.99 14.593,-6.07 2.045,-4.38 4.027,-8.943 6.013,-13.655 -4.746,2.059 -9.66,4.085 -14.748,6.048 -1.916,4.739 -3.885,9.291 -5.858,13.677"
           style="fill:#67cef5;fill-opacity:1;fill-rule:evenodd;stroke:none"
           id="path4646"
           inkscape:connector-curvature="0" /><path
           d="m 498.087,489.122 c 3.675,-2.049 7.224,-4.096 10.642,-6.155 2.016,-4.314 3.983,-8.767 5.915,-13.347 -3.372,2.018 -6.878,4.031 -10.531,6.027 -1.958,4.639 -3.971,9.129 -6.026,13.475"
           style="fill:#00adef;fill-opacity:1;fill-rule:evenodd;stroke:none"
           id="path4648"
           inkscape:connector-curvature="0" /><path
           d="m 529.117,469.692 c 2.346,-1.628 4.616,-3.255 6.834,-4.853 1.786,-4.188 3.535,-8.472 5.243,-12.855 -2.138,1.549 -4.334,3.126 -6.605,4.707 -1.771,4.446 -3.601,8.778 -5.472,13.001"
           style="fill:#1db6f1;fill-opacity:1;fill-rule:evenodd;stroke:none"
           id="path4650"
           inkscape:connector-curvature="0" /><path
           d="m 551.546,453.411 c 2.137,-1.555 4.242,-3.071 6.337,-4.528 1.431,-4.049 2.838,-8.16 4.193,-12.342 -1.972,1.414 -3.971,2.87 -5.986,4.379 -1.485,4.237 -2.995,8.401 -4.544,12.491"
           style="fill:#00adef;fill-opacity:1;fill-rule:evenodd;stroke:none"
           id="path4652"
           inkscape:connector-curvature="0" /><path
           d="m 571.791,440.104 c 2.088,-1.142 4.213,-2.223 6.374,-3.235 1.002,-3.96 1.986,-7.957 2.932,-11.994 -2.029,0.985 -4.016,2.038 -5.97,3.152 -1.091,4.07 -2.199,8.096 -3.336,12.077"
           style="fill:#32bdf2;fill-opacity:1;fill-rule:evenodd;stroke:none"
           id="path4654"
           inkscape:connector-curvature="0" /><path
           d="m 601.824,417.833 c -2.012,0.433 -3.97,0.917 -5.871,1.445 -0.653,3.99 -1.322,7.959 -1.977,11.911 2.526,-0.669 5.143,-1.249 7.848,-1.751 z"
           style="fill:#77d3f6;fill-opacity:1;fill-rule:evenodd;stroke:none"
           id="path4656"
           inkscape:connector-curvature="0" /><path
           d="m 4.4,399.454 c 1.69,0.967 3.355,1.996 5.017,3.058 -1.065,-4.48 -2.05,-9.018 -2.994,-13.601 -1.559,-0.958 -3.131,-1.87 -4.717,-2.739 0.84,4.471 1.737,8.9 2.694,13.282"
           style="fill:#42c2f3;fill-opacity:1;fill-rule:evenodd;stroke:none"
           id="path4658"
           inkscape:connector-curvature="0" /><path
           d="m 20.975,410.545 c 1.825,1.322 3.694,2.68 5.621,4.06 -1.381,-4.874 -2.686,-9.83 -3.914,-14.862 -1.832,-1.243 -3.616,-2.454 -5.348,-3.639 1.14,4.883 2.355,9.698 3.641,14.441"
           style="fill:#00adef;fill-opacity:1;fill-rule:evenodd;stroke:none"
           id="path4660"
           inkscape:connector-curvature="0" /><path
           d="m 41.373,424.76 c 2.515,1.622 5.125,3.282 7.866,4.927 -1.66,-5.341 -3.236,-10.801 -4.709,-16.375 -2.661,-1.494 -5.208,-2.973 -7.641,-4.445 1.397,5.404 2.907,10.7 4.484,15.893"
           style="fill:#00adef;fill-opacity:1;fill-rule:evenodd;stroke:none"
           id="path4662"
           inkscape:connector-curvature="0" /><path
           d="m 70.859,441.531 c 3.253,1.619 6.636,3.219 10.14,4.824 -1.84,-5.796 -3.583,-11.758 -5.238,-17.874 -3.468,-1.473 -6.814,-2.935 -10.026,-4.415 1.603,5.968 3.326,11.789 5.124,17.465"
           style="fill:#00adef;fill-opacity:1;fill-rule:evenodd;stroke:none"
           id="path4664"
           inkscape:connector-curvature="0" /><path
           d="m 112.328,459 c 5.328,1.902 10.858,3.76 16.59,5.564 -1.824,-6.172 -3.561,-12.559 -5.248,-19.146 -5.77,-1.706 -11.331,-3.443 -16.675,-5.23 1.694,6.462 3.465,12.738 5.333,18.812"
           style="fill:#39bff3;fill-opacity:1;fill-rule:evenodd;stroke:none"
           id="path4666"
           inkscape:connector-curvature="0" /><path
           d="m 172.653,476.224 c 7.222,1.599 14.64,3.093 22.25,4.45 -1.374,-6.312 -2.724,-12.869 -4.038,-19.674 -7.819,-1.348 -15.423,-2.829 -22.813,-4.386 1.496,6.773 3.022,13.312 4.601,19.61"
           style="fill:#7ed6f7;fill-opacity:1;fill-rule:evenodd;stroke:none"
           id="path4668"
           inkscape:connector-curvature="0" /><path
           d="m 250.291,487.763 c 8.671,0.655 17.423,1.154 26.234,1.414 -0.268,-6.262 -0.544,-12.773 -0.8,-19.539 -9.225,-0.283 -18.379,-0.777 -27.436,-1.466 0.669,6.783 1.326,13.312 2.002,19.591"
           style="fill:#1eb7f1;fill-opacity:1;fill-rule:evenodd;stroke:none"
           id="path4670"
           inkscape:connector-curvature="0" /><path
           d="m 335.972,487.784 c 8.59,-0.665 17.068,-1.518 25.414,-2.545 1.018,-6.301 2.022,-12.85 3.027,-19.652 -8.67,1.037 -17.493,1.926 -26.451,2.607 -0.659,6.783 -1.323,13.311 -1.99,19.59"
           style="fill:#3cc0f3;fill-opacity:1;fill-rule:evenodd;stroke:none"
           id="path4672"
           inkscape:connector-curvature="0" /><path
           d="m 413.653,476.273 c 7.057,-1.561 13.913,-3.224 20.562,-4.966 1.705,-6.263 3.372,-12.749 4.975,-19.459 -6.757,1.678 -13.738,3.289 -20.939,4.815 -1.492,6.773 -3.018,13.312 -4.598,19.61"
           style="fill:#7ed6f7;fill-opacity:1;fill-rule:evenodd;stroke:none"
           id="path4674"
           inkscape:connector-curvature="0" /><path
           d="m 474.04,459.059 c 5.165,-1.855 10.144,-3.726 14.927,-5.634 1.857,-5.965 3.649,-12.105 5.332,-18.426 -4.778,1.769 -9.748,3.527 -14.927,5.243 -1.699,6.464 -3.472,12.739 -5.332,18.817"
           style="fill:#00aded;fill-opacity:1;fill-rule:evenodd;stroke:none"
           id="path4676"
           inkscape:connector-curvature="0" /><path
           d="m 516.923,440.906 c 3.551,-1.781 6.954,-3.565 10.202,-5.36 1.736,-5.512 3.377,-11.158 4.938,-16.928 -3.193,1.63 -6.538,3.249 -10.034,4.878 -1.607,5.946 -3.303,11.754 -5.106,17.41"
           style="fill:#00adef;fill-opacity:1;fill-rule:evenodd;stroke:none"
           id="path4678"
           inkscape:connector-curvature="0" /><path
           d="m 546,424.212 c 2.102,-1.378 4.133,-2.736 6.092,-4.083 1.501,-5.049 2.924,-10.192 4.242,-15.429 -1.883,1.217 -3.84,2.444 -5.876,3.674 -1.402,5.38 -2.875,10.665 -4.458,15.838"
           style="fill:#00adef;fill-opacity:1;fill-rule:evenodd;stroke:none"
           id="path4680"
           inkscape:connector-curvature="0" /><path
           d="m 565.498,410.586 c 1.785,-1.293 3.533,-2.556 5.263,-3.767 1.168,-4.626 2.301,-9.308 3.361,-14.052 -1.634,1.086 -3.29,2.212 -4.978,3.373 -1.143,4.885 -2.378,9.696 -3.646,14.446"
           style="fill:#05afef;fill-opacity:1;fill-rule:evenodd;stroke:none"
           id="path4682"
           inkscape:connector-curvature="0" /><path
           d="m 582.078,399.484 c 1.685,-0.97 3.413,-1.868 5.163,-2.736 0.839,-4.299 1.628,-8.636 2.394,-13.004 -1.655,0.763 -3.273,1.586 -4.86,2.454 -0.846,4.471 -1.744,8.901 -2.697,13.286"
           style="fill:#7cd5f7;fill-opacity:1;fill-rule:evenodd;stroke:none"
           id="path4684"
           inkscape:connector-curvature="0" /><path
           d="m 601.824,380.029 c -0.511,3.947 -1.045,7.875 -1.601,11.783 0.528,-0.15 1.062,-0.295 1.601,-0.437 z"
           style="fill:#0f89bb;fill-opacity:1;fill-rule:evenodd;stroke:none"
           id="path4686"
           inkscape:connector-curvature="0" /><path
           d="m -0.484,356.224 c 0.523,0.233 1.046,0.469 1.567,0.709 -0.599,-4.623 -1.114,-9.275 -1.567,-13.953 z"
           style="fill:#00ace4;fill-opacity:1;fill-rule:evenodd;stroke:none"
           id="path4688"
           inkscape:connector-curvature="0" /><path
           d="m 10.834,361.727 c 1.567,0.786 3.178,1.602 4.847,2.43 -0.82,-5.479 -1.539,-11.01 -2.155,-16.584 -1.616,-0.611 -3.181,-1.204 -4.689,-1.798 0.572,5.356 1.235,10.676 1.997,15.952"
           style="fill:#00adef;fill-opacity:1;fill-rule:evenodd;stroke:none"
           id="path4690"
           inkscape:connector-curvature="0" /><path
           d="m 28.813,370.287 c 2.285,0.999 4.682,2.003 7.196,3.009 -1.011,-6.24 -1.895,-12.557 -2.651,-18.94 -2.463,-0.744 -4.812,-1.484 -7.045,-2.237 0.712,6.117 1.547,12.176 2.5,18.168"
           style="fill:#00adef;fill-opacity:1;fill-rule:evenodd;stroke:none"
           id="path4692"
           inkscape:connector-curvature="0" /><path
           d="m 56.32,380.674 c 3.119,1.02 6.365,2.044 9.739,3.08 -1.181,-7.083 -2.214,-14.276 -3.086,-21.571 -3.338,-0.773 -6.544,-1.547 -9.623,-2.314 0.838,7.027 1.839,13.966 2.97,20.805"
           style="fill:#76d3f6;fill-opacity:1;fill-rule:evenodd;stroke:none"
           id="path4694"
           inkscape:connector-curvature="0" /><path
           d="m 96.812,392.131 c 5.327,1.305 10.873,2.609 16.647,3.883 -1.283,-8.002 -2.439,-16.168 -3.416,-24.488 -5.75,-0.984 -11.272,-1.975 -16.57,-2.988 0.958,8.002 2.068,15.873 3.339,23.593"
           style="fill:#45c3f1;fill-opacity:1;fill-rule:evenodd;stroke:none"
           id="path4696"
           inkscape:connector-curvature="0" /><path
           d="m 158.547,404.806 c 7.633,1.29 15.524,2.545 23.675,3.73 -1.194,-8.749 -2.285,-17.752 -3.268,-26.996 -8.218,-0.986 -16.157,-2.026 -23.826,-3.072 1.005,8.994 2.155,17.778 3.419,26.338"
           style="fill:#57c9f4;fill-opacity:1;fill-rule:evenodd;stroke:none"
           id="path4698"
           inkscape:connector-curvature="0" /><path
           d="m 243.62,415.298 c 9.917,0.716 19.993,1.245 30.189,1.545 -0.3,-8.945 -0.597,-18.197 -0.894,-27.763 -10.629,-0.292 -21.096,-0.831 -31.356,-1.531 0.661,9.555 1.337,18.805 2.061,27.749"
           style="fill:#00adef;fill-opacity:1;fill-rule:evenodd;stroke:none"
           id="path4700"
           inkscape:connector-curvature="0" /><path
           d="m 342.605,415.32 c 9.754,-0.696 19.301,-1.57 28.62,-2.587 1,-8.9 1.917,-18.09 2.797,-27.56 -9.526,0.906 -19.319,1.727 -29.366,2.396 -0.644,9.557 -1.342,18.806 -2.051,27.751"
           style="fill:#00adef;fill-opacity:1;fill-rule:evenodd;stroke:none"
           id="path4702"
           inkscape:connector-curvature="0" /><path
           d="m 427.75,404.846 c 7.394,-1.268 14.534,-2.567 21.425,-3.886 1.289,-8.33 2.453,-16.857 3.459,-25.567 -6.893,1.063 -14.049,2.094 -21.467,3.107 -0.996,8.999 -2.149,17.784 -3.417,26.346"
           style="fill:#00adef;fill-opacity:1;fill-rule:evenodd;stroke:none"
           id="path4704"
           inkscape:connector-curvature="0" /><path
           d="m 489.557,392.171 c 5.13,-1.268 10.058,-2.508 14.77,-3.796 1.237,-7.44 2.325,-15.012 3.237,-22.701 -4.683,0.966 -9.57,1.936 -14.669,2.894 -0.958,8.005 -2.065,15.879 -3.338,23.603"
           style="fill:#25b9f1;fill-opacity:1;fill-rule:evenodd;stroke:none"
           id="path4706"
           inkscape:connector-curvature="0" /><path
           d="m 531.404,380.279 c 3.367,-1.131 6.583,-2.248 9.654,-3.362 1.086,-6.534 2.001,-13.162 2.814,-19.86 -3.022,0.836 -6.189,1.675 -9.514,2.515 -0.832,6.994 -1.837,13.898 -2.954,20.707"
           style="fill:#7ad4f7;fill-opacity:1;fill-rule:evenodd;stroke:none"
           id="path4708"
           inkscape:connector-curvature="0" /><path
           d="m 558.479,369.953 c 1.892,-0.843 3.719,-1.657 5.468,-2.474 0.904,-5.756 1.681,-11.575 2.351,-17.443 -1.706,0.607 -3.487,1.211 -5.334,1.836 -0.704,6.088 -1.53,12.119 -2.485,18.081"
           style="fill:#00adef;fill-opacity:1;fill-rule:evenodd;stroke:none"
           id="path4710"
           inkscape:connector-curvature="0" /><path
           d="m 575.647,361.751 c 1.526,-0.77 3.008,-1.528 4.468,-2.249 0.707,-5.086 1.319,-10.213 1.842,-15.373 -1.406,0.532 -2.836,1.101 -4.309,1.663 -0.574,5.359 -1.245,10.681 -2.001,15.959"
           style="fill:#00adef;fill-opacity:1;fill-rule:evenodd;stroke:none"
           id="path4712"
           inkscape:connector-curvature="0" /><path
           d="m 589.596,355.125 c 1.414,-0.58 2.851,-1.135 4.327,-1.639 0.492,-4.58 0.941,-9.183 1.318,-13.806 -1.417,0.375 -2.805,0.777 -4.166,1.213 -0.409,4.771 -0.907,9.515 -1.479,14.232"
           style="fill:#00ace4;fill-opacity:1;fill-rule:evenodd;stroke:none"
           id="path4714"
           inkscape:connector-curvature="0" /><path
           d="m 6.642,308.992 c 1.454,0.085 2.957,0.169 4.514,0.252 -0.074,-5.735 -0.053,-11.471 0.105,-17.197 -1.559,0.165 -3.065,0.312 -4.522,0.457 -0.142,5.492 -0.172,10.991 -0.097,16.488"
           style="fill:#00ace2;fill-opacity:1;fill-rule:evenodd;stroke:none"
           id="path4716"
           inkscape:connector-curvature="0" /><path
           d="m 23.552,309.88 c 2.182,0.102 4.472,0.208 6.874,0.315 -0.103,-6.628 -0.066,-13.259 0.13,-19.878 -2.405,0.189 -4.697,0.384 -6.882,0.572 -0.186,6.325 -0.222,12.659 -0.122,18.991"
           style="fill:#0081b6;fill-opacity:1;fill-rule:evenodd;stroke:none"
           id="path4718"
           inkscape:connector-curvature="0" /><path
           d="m 50.037,310.973 c 3.033,0.102 6.192,0.213 9.48,0.328 -0.124,-7.667 -0.075,-15.339 0.154,-22.996 -3.291,0.197 -6.452,0.392 -9.486,0.595 -0.208,7.352 -0.268,14.714 -0.148,22.073"
           style="fill:#7ad4f7;fill-opacity:1;fill-rule:evenodd;stroke:none"
           id="path4720"
           inkscape:connector-curvature="0" /><path
           d="m 89.666,312.215 c 5.254,0.145 10.728,0.289 16.428,0.437 -0.137,-8.937 -0.085,-17.882 0.18,-26.801 -5.703,0.269 -11.181,0.529 -16.437,0.794 -0.264,8.511 -0.317,17.042 -0.171,25.57"
           style="fill:#00adef;fill-opacity:1;fill-rule:evenodd;stroke:none"
           id="path4722"
           inkscape:connector-curvature="0" /><path
           d="m 150.949,313.706 c 7.657,0.179 15.593,0.343 23.814,0.499 -0.172,-10.398 -0.101,-20.804 0.204,-31.166 -8.223,0.304 -16.161,0.603 -23.821,0.9 -0.288,9.903 -0.361,19.838 -0.197,29.767"
           style="fill:#51c7f4;fill-opacity:1;fill-rule:evenodd;stroke:none"
           id="path4724"
           inkscape:connector-curvature="0" /><path
           d="m 238.142,315.392 c 10.625,0.186 21.587,0.358 32.888,0.531 -0.157,-12.012 -0.062,-24.043 0.178,-35.86 -11.28,0.229 -22.233,0.548 -32.854,0.867 -0.313,11.425 -0.385,22.947 -0.212,34.462"
           style="fill:#00adef;fill-opacity:1;fill-rule:evenodd;stroke:none"
           id="path4726"
           inkscape:connector-curvature="0" /><path
           d="m 348.063,315.396 c 10.307,-0.181 20.286,-0.357 29.95,-0.536 0.163,-11.015 0.092,-22.035 -0.211,-32.997 -9.663,-0.313 -19.644,-0.646 -29.95,-0.941 0.296,11.428 0.377,22.957 0.211,34.474"
           style="fill:#00adef;fill-opacity:1;fill-rule:evenodd;stroke:none"
           id="path4728"
           inkscape:connector-curvature="0" /><path
           d="m 435.346,313.71 c 7.393,-0.154 14.521,-0.317 21.385,-0.479 0.149,-9.482 0.09,-18.97 -0.188,-28.431 -6.868,-0.288 -13.998,-0.567 -21.394,-0.869 0.289,9.906 0.36,19.846 0.197,29.779"
           style="fill:#6bcff6;fill-opacity:1;fill-rule:evenodd;stroke:none"
           id="path4730"
           inkscape:connector-curvature="0" /><path
           d="m 496.706,312.219 c 5.045,-0.147 9.882,-0.29 14.517,-0.418 0.129,-8.138 0.064,-16.28 -0.165,-24.405 -4.636,-0.264 -9.477,-0.505 -14.525,-0.76 0.246,8.515 0.319,17.054 0.173,25.583"
           style="fill:#00adef;fill-opacity:1;fill-rule:evenodd;stroke:none"
           id="path4732"
           inkscape:connector-curvature="0" /><path
           d="m 537.652,310.93 c 3.266,-0.116 6.379,-0.233 9.346,-0.356 0.133,-6.983 0.059,-13.971 -0.137,-20.948 -2.971,-0.225 -6.088,-0.435 -9.355,-0.648 0.228,7.311 0.26,14.632 0.146,21.952"
           style="fill:#00adef;fill-opacity:1;fill-rule:evenodd;stroke:none"
           id="path4734"
           inkscape:connector-curvature="0" /><path
           d="m 563.705,309.845 c 1.797,-0.091 3.524,-0.173 5.184,-0.257 0.081,-6.057 0.048,-12.117 -0.116,-18.169 -1.661,-0.161 -3.39,-0.311 -5.19,-0.466 0.165,6.291 0.22,12.593 0.122,18.892"
           style="fill:#00adef;fill-opacity:1;fill-rule:evenodd;stroke:none"
           id="path4736"
           inkscape:connector-curvature="0" /><path
           d="m 579.843,308.994 c 1.415,-0.074 2.79,-0.163 4.136,-0.231 0.064,-5.282 0.041,-10.564 -0.09,-15.842 -1.348,-0.127 -2.728,-0.268 -4.142,-0.421 0.147,5.493 0.163,10.995 0.096,16.494"
           style="fill:#44c3f3;fill-opacity:1;fill-rule:evenodd;stroke:none"
           id="path4738"
           inkscape:connector-curvature="0" /><path
           d="m 592.701,308.312 c 1.305,-0.061 2.633,-0.12 3.988,-0.17 0.065,-4.7 0.034,-9.396 -0.064,-14.09 -1.359,-0.095 -2.687,-0.202 -3.998,-0.311 0.115,4.856 0.107,9.713 0.074,14.571"
           style="fill:#5fccf5;fill-opacity:1;fill-rule:evenodd;stroke:none"
           id="path4740"
           inkscape:connector-curvature="0" /><path
           d="m -0.484,259.894 c 0.117,-0.045 0.235,-0.09 0.353,-0.136 0.515,-4.907 1.112,-9.785 1.781,-14.627 -0.71,0.343 -1.421,0.68 -2.134,1.009 z"
           style="fill:#35bbef;fill-opacity:1;fill-rule:evenodd;stroke:none"
           id="path4742"
           inkscape:connector-curvature="0" /><path
           d="m 9.356,255.841 c 1.524,-0.652 3.102,-1.308 4.731,-1.987 0.678,-5.54 1.454,-11.031 2.339,-16.468 -1.688,0.887 -3.32,1.755 -4.9,2.605 -0.817,5.238 -1.551,10.523 -2.17,15.85"
           style="fill:#00adef;fill-opacity:1;fill-rule:evenodd;stroke:none"
           id="path4744"
           inkscape:connector-curvature="0" /><path
           d="m 26.964,248.835 c 2.253,-0.811 4.607,-1.648 7.086,-2.472 0.825,-6.329 1.787,-12.587 2.872,-18.762 -2.529,1.081 -4.939,2.166 -7.244,3.22 -1.027,5.935 -1.922,11.944 -2.714,18.014"
           style="fill:#19b5f1;fill-opacity:1;fill-rule:evenodd;stroke:none"
           id="path4746"
           inkscape:connector-curvature="0" /><path
           d="m 54.126,240.291 c 3.09,-0.847 6.306,-1.701 9.655,-2.547 0.961,-7.216 2.069,-14.324 3.334,-21.308 -3.392,1.085 -6.65,2.181 -9.776,3.284 -1.208,6.753 -2.29,13.615 -3.213,20.571"
           style="fill:#7cd5f7;fill-opacity:1;fill-rule:evenodd;stroke:none"
           id="path4748"
           inkscape:connector-curvature="0" /><path
           d="m 94.353,230.768 c 5.309,-1.092 10.836,-2.187 16.594,-3.265 1.073,-8.193 2.28,-16.229 3.659,-24.081 -5.777,1.355 -11.33,2.727 -16.665,4.106 -1.341,7.597 -2.543,15.349 -3.588,23.24"
           style="fill:#00adef;fill-opacity:1;fill-rule:evenodd;stroke:none"
           id="path4750"
           inkscape:connector-curvature="0" /><path
           d="m 156.047,219.966 c 7.661,-1.144 15.594,-2.24 23.798,-3.294 1.034,-9.037 2.194,-17.825 3.421,-26.354 -8.122,1.219 -15.992,2.51 -23.603,3.871 -1.335,8.362 -2.541,16.96 -3.616,25.777"
           style="fill:#44c3f2;fill-opacity:1;fill-rule:evenodd;stroke:none"
           id="path4752"
           inkscape:connector-curvature="0" /><path
           d="m 242.15,210.386 c 10.166,-0.705 20.523,-1.239 31.027,-1.541 0.29,-9.294 0.588,-18.278 0.888,-26.958 -10.068,0.29 -20.025,0.829 -29.836,1.54 -0.707,8.684 -1.419,17.669 -2.079,26.959"
           style="fill:#009ddb;fill-opacity:1;fill-rule:evenodd;stroke:none"
           id="path4754"
           inkscape:connector-curvature="0" /><path
           d="m 344.067,210.364 c 9.969,0.691 19.7,1.527 29.172,2.475 -0.903,-9.228 -1.866,-18.169 -2.873,-26.824 -9.249,-1.012 -18.711,-1.911 -28.367,-2.612 0.718,8.688 1.399,17.672 2.068,26.961"
           style="fill:#76d3f6;fill-opacity:1;fill-rule:evenodd;stroke:none"
           id="path4756"
           inkscape:connector-curvature="0" /><path
           d="m 430.248,219.931 c 7.412,1.103 14.567,2.215 21.463,3.36 -1.089,-8.558 -2.325,-16.922 -3.684,-25.08 -6.881,-1.392 -14.009,-2.761 -21.392,-4.063 1.318,8.367 2.544,16.964 3.613,25.783"
           style="fill:#00ace2;fill-opacity:1;fill-rule:evenodd;stroke:none"
           id="path4758"
           inkscape:connector-curvature="0" /><path
           d="m 492.016,230.734 c 5.108,1.046 10.005,2.112 14.699,3.17 -1.012,-7.59 -2.187,-15.056 -3.491,-22.385 -4.727,-1.349 -9.658,-2.696 -14.797,-4.034 1.337,7.602 2.547,15.353 3.589,23.249"
           style="fill:#0bb1f0;fill-opacity:1;fill-rule:evenodd;stroke:none"
           id="path4760"
           inkscape:connector-curvature="0" /><path
           d="m 533.587,240.616 c 3.334,0.929 6.517,1.85 9.551,2.771 -0.879,-6.639 -1.896,-13.195 -3.049,-19.656 -3.083,-1.192 -6.316,-2.387 -9.699,-3.589 1.203,6.724 2.267,13.552 3.197,20.474"
           style="fill:#44c3f3;fill-opacity:1;fill-rule:evenodd;stroke:none"
           id="path4762"
           inkscape:connector-curvature="0" /><path
           d="m 560.316,249.107 c 1.866,0.673 3.65,1.359 5.371,2.027 -0.738,-5.827 -1.583,-11.599 -2.552,-17.306 -1.768,-0.865 -3.599,-1.763 -5.512,-2.649 1.02,5.909 1.928,11.886 2.693,17.928"
           style="fill:#2dabdd;fill-opacity:1;fill-rule:evenodd;stroke:none"
           id="path4764"
           inkscape:connector-curvature="0" /><path
           d="m 577.127,255.822 c 1.486,0.63 2.928,1.257 4.351,1.838 -0.587,-5.133 -1.243,-10.23 -1.999,-15.284 -1.475,-0.78 -2.975,-1.592 -4.523,-2.41 0.821,5.24 1.552,10.526 2.171,15.856"
           style="fill:#2dbcf2;fill-opacity:1;fill-rule:evenodd;stroke:none"
           id="path4766"
           inkscape:connector-curvature="0" /><path
           d="m 590.689,261.238 c 1.377,0.472 2.778,0.922 4.209,1.34 -0.424,-4.608 -0.89,-9.193 -1.431,-13.753 -1.492,-0.547 -2.946,-1.144 -4.384,-1.756 0.608,4.693 1.134,9.418 1.606,14.169"
           style="fill:#00adef;fill-opacity:1;fill-rule:evenodd;stroke:none"
           id="path4768"
           inkscape:connector-curvature="0" /><path
           d="m 2.459,216.219 c 1.617,-0.9 3.215,-1.846 4.8,-2.838 0.967,-4.547 2.008,-9.037 3.088,-13.48 -1.685,1.101 -3.391,2.141 -5.109,3.14 -0.967,4.351 -1.906,8.742 -2.779,13.178"
           style="fill:#47c4f3;fill-opacity:1;fill-rule:evenodd;stroke:none"
           id="path4770"
           inkscape:connector-curvature="0" /><path
           d="m 18.352,205.928 c 1.756,-1.229 3.567,-2.48 5.424,-3.77 1.27,-4.97 2.621,-9.863 4.035,-14.675 -1.954,1.419 -3.851,2.813 -5.705,4.17 -1.32,4.685 -2.576,9.445 -3.754,14.275"
           style="fill:#00adef;fill-opacity:1;fill-rule:evenodd;stroke:none"
           id="path4772"
           inkscape:connector-curvature="0" /><path
           d="m 38.145,192.712 c 2.454,-1.521 5.023,-3.05 7.706,-4.594 1.523,-5.484 3.14,-10.852 4.842,-16.097 -2.756,1.694 -5.397,3.379 -7.933,5.046 -1.621,5.11 -3.167,10.325 -4.615,15.645"
           style="fill:#11b2f0;fill-opacity:1;fill-rule:evenodd;stroke:none"
           id="path4774"
           inkscape:connector-curvature="0" /><path
           d="m 67.177,177.021 c 3.222,-1.529 6.578,-3.04 10.061,-4.546 1.703,-5.991 3.482,-11.825 5.363,-17.492 -3.519,1.624 -6.901,3.281 -10.169,4.924 -1.834,5.556 -3.591,11.265 -5.255,17.114"
           style="fill:#00ace2;fill-opacity:1;fill-rule:evenodd;stroke:none"
           id="path4776"
           inkscape:connector-curvature="0" /><path
           d="m 108.509,160.463 c 5.345,-1.817 10.898,-3.596 16.657,-5.343 1.708,-6.418 3.484,-12.63 5.329,-18.631 -5.718,1.826 -11.234,3.71 -16.554,5.635 -1.889,5.916 -3.694,12.032 -5.432,18.339"
           style="fill:#00abed;fill-opacity:1;fill-rule:evenodd;stroke:none"
           id="path4778"
           inkscape:connector-curvature="0" /><path
           d="m 169.38,143.758 c 7.345,-1.572 14.9,-3.042 22.658,-4.416 1.318,-6.592 2.679,-12.939 4.041,-19.049 -7.544,1.356 -14.908,2.832 -22.072,4.452 -1.583,6.104 -3.125,12.441 -4.627,19.013"
           style="fill:#5bcaf5;fill-opacity:1;fill-rule:evenodd;stroke:none"
           id="path4780"
           inkscape:connector-curvature="0" /><path
           d="m 248.878,132.183 c 8.944,-0.681 17.98,-1.18 27.082,-1.45 0.273,-6.544 0.541,-12.837 0.792,-18.887 -8.693,0.273 -17.331,0.741 -25.891,1.4 -0.676,6.065 -1.324,12.378 -1.983,18.937"
           style="fill:#26b9f1;fill-opacity:1;fill-rule:evenodd;stroke:none"
           id="path4782"
           inkscape:connector-curvature="0" /><path
           d="m 337.375,132.164 c 8.853,0.665 17.576,1.546 26.153,2.59 -1.005,-6.581 -1.995,-12.917 -3.013,-19.007 -8.25,-1.014 -16.627,-1.864 -25.109,-2.522 0.666,6.067 1.319,12.378 1.969,18.939"
           style="fill:#5acaf5;fill-opacity:1;fill-rule:evenodd;stroke:none"
           id="path4784"
           inkscape:connector-curvature="0" /><path
           d="m 416.925,143.708 c 7.162,1.539 14.11,3.165 20.838,4.873 -1.621,-6.524 -3.294,-12.824 -5.029,-18.895 -6.611,-1.756 -13.422,-3.425 -20.432,-4.991 1.585,6.102 3.129,12.441 4.623,19.013"
           style="fill:#00adef;fill-opacity:1;fill-rule:evenodd;stroke:none"
           id="path4786"
           inkscape:connector-curvature="0" /><path
           d="m 477.858,160.407 c 5.172,1.769 10.152,3.554 14.932,5.371 -1.718,-6.18 -3.538,-12.18 -5.445,-17.994 -4.78,-1.947 -9.751,-3.859 -14.919,-5.721 1.894,5.917 3.715,12.032 5.432,18.344"
           style="fill:#00adef;fill-opacity:1;fill-rule:evenodd;stroke:none"
           id="path4788"
           inkscape:connector-curvature="0" /><path
           d="m 520.592,177.607 c 3.511,1.68 6.872,3.358 10.084,5.031 -1.595,-5.671 -3.304,-11.206 -5.071,-16.615 -3.271,-1.828 -6.686,-3.653 -10.251,-5.479 1.822,5.546 3.582,11.231 5.238,17.063"
           style="fill:#00adef;fill-opacity:1;fill-rule:evenodd;stroke:none"
           id="path4790"
           inkscape:connector-curvature="0" /><path
           d="m 549.209,193.226 c 2.055,1.275 4.03,2.548 5.938,3.799 -1.366,-5.165 -2.821,-10.239 -4.369,-15.207 -1.982,-1.383 -4.034,-2.778 -6.157,-4.188 1.602,5.097 3.142,10.293 4.588,15.596"
           style="fill:#30bcf2;fill-opacity:1;fill-rule:evenodd;stroke:none"
           id="path4792"
           inkscape:connector-curvature="0" /><path
           d="m 568.124,205.892 c 1.718,1.193 3.395,2.371 5.057,3.493 -1.093,-4.697 -2.232,-9.338 -3.466,-13.906 -1.752,-1.253 -3.53,-2.546 -5.347,-3.867 1.319,4.688 2.583,9.446 3.756,14.28"
           style="fill:#00adef;fill-opacity:1;fill-rule:evenodd;stroke:none"
           id="path4794"
           inkscape:connector-curvature="0" /><path
           d="m 584.022,216.191 c 1.616,0.896 3.259,1.751 4.944,2.544 -0.768,-4.344 -1.612,-8.646 -2.468,-12.916 -1.791,-0.875 -3.539,-1.819 -5.259,-2.808 0.972,4.35 1.902,8.744 2.783,13.18"
           style="fill:#79d4f7;fill-opacity:1;fill-rule:evenodd;stroke:none"
           id="path4796"
           inkscape:connector-curvature="0" /><path
           d="m 601.824,211.453 c -0.718,-0.186 -1.426,-0.379 -2.126,-0.578 0.61,4.131 1.204,8.282 1.744,12.461 0.127,0.034 0.254,0.068 0.382,0.103 z"
           style="fill:#2ca7d5;fill-opacity:1;fill-rule:evenodd;stroke:none"
           id="path4798"
           inkscape:connector-curvature="0" /><path
           d="m -0.484,174.432 c 0.338,-1.664 0.677,-3.324 1.02,-4.979 -0.339,0.116 -0.679,0.231 -1.02,0.343 z"
           style="fill:#0db1ec;fill-opacity:1;fill-rule:evenodd;stroke:none"
           id="path4800"
           inkscape:connector-curvature="0" /><path
           d="m 12.303,174.749 c 1.993,-1.134 3.959,-2.334 5.914,-3.582 1.221,-4.071 2.478,-8.089 3.752,-12.055 -2.083,1.285 -4.182,2.513 -6.311,3.667 -1.136,3.945 -2.254,7.938 -3.355,11.97"
           style="fill:#00adef;fill-opacity:1;fill-rule:evenodd;stroke:none"
           id="path4802"
           inkscape:connector-curvature="0" /><path
           d="m 31.682,161.722 c 2.102,-1.539 4.226,-3.144 6.405,-4.77 1.6,-4.233 3.249,-8.377 4.911,-12.449 -2.284,1.681 -4.529,3.312 -6.736,4.907 -1.557,4.031 -3.087,8.134 -4.58,12.312"
           style="fill:#00adeb;fill-opacity:1;fill-rule:evenodd;stroke:none"
           id="path4804"
           inkscape:connector-curvature="0" /><path
           d="m 54.431,145.09 c 2.715,-1.885 5.527,-3.79 8.449,-5.697 1.882,-4.418 3.804,-8.718 5.762,-12.898 -2.99,1.953 -5.876,3.898 -8.668,5.831 -1.879,4.152 -3.734,8.402 -5.543,12.764"
           style="fill:#00ace4;fill-opacity:1;fill-rule:evenodd;stroke:none"
           id="path4806"
           inkscape:connector-curvature="0" /><path
           d="m 85.443,125.898 c 3.33,-1.804 6.766,-3.615 10.325,-5.393 1.991,-4.556 4.033,-8.953 6.09,-13.206 -3.559,1.801 -7.009,3.622 -10.353,5.456 -2.059,4.237 -4.08,8.62 -6.062,13.143"
           style="fill:#00adef;fill-opacity:1;fill-rule:evenodd;stroke:none"
           id="path4808"
           inkscape:connector-curvature="0" /><path
           d="m 126.91,106.732 c 5.198,-2.015 10.566,-3.977 16.107,-5.864 1.836,-4.586 3.71,-8.984 5.583,-13.21 -5.434,1.871 -10.716,3.807 -15.832,5.821 -1.976,4.246 -3.931,8.663 -5.858,13.253"
           style="fill:#00adef;fill-opacity:1;fill-rule:evenodd;stroke:none"
           id="path4810"
           inkscape:connector-curvature="0" /><path
           d="m 184.427,89.063 c 6.707,-1.56 13.565,-2.998 20.563,-4.303 1.247,-4.484 2.529,-8.766 3.79,-12.867 -6.749,1.253 -13.369,2.654 -19.856,4.175 -1.508,4.142 -3.008,8.473 -4.497,12.995"
           style="fill:#6fd1f6;fill-opacity:1;fill-rule:evenodd;stroke:none"
           id="path4812"
           inkscape:connector-curvature="0" /><path
           d="m 255.06,78.173 c 7.734,-0.603 15.525,-1.022 23.353,-1.269 0.232,-4.373 0.449,-8.555 0.684,-12.55 -7.471,0.232 -14.908,0.637 -22.297,1.21 -0.578,4.016 -1.154,8.22 -1.74,12.609"
           style="fill:#10b2f0;fill-opacity:1;fill-rule:evenodd;stroke:none"
           id="path4814"
           inkscape:connector-curvature="0" /><path
           d="m 331.231,78.156 c 7.682,0.606 15.291,1.37 22.805,2.323 -0.905,-4.425 -1.801,-8.664 -2.711,-12.708 -7.197,-0.915 -14.476,-1.653 -21.822,-2.225 0.569,4.017 1.144,8.22 1.728,12.61"
           style="fill:#57c9f4;fill-opacity:1;fill-rule:evenodd;stroke:none"
           id="path4816"
           inkscape:connector-curvature="0" /><path
           d="m 401.896,89.016 c 6.588,1.539 13.021,3.177 19.287,4.939 -1.672,-4.556 -3.353,-8.928 -5.06,-13.108 -6.092,-1.721 -12.332,-3.336 -18.718,-4.828 1.499,4.145 2.995,8.477 4.491,12.997"
           style="fill:#09b0f0;fill-opacity:1;fill-rule:evenodd;stroke:none"
           id="path4818"
           inkscape:connector-curvature="0" /><path
           d="m 459.46,106.67 c 5.071,1.971 9.968,4.01 14.705,6.065 -1.985,-4.58 -3.976,-9.006 -6.018,-13.256 -4.688,-2.077 -9.537,-4.096 -14.542,-6.061 1.96,4.253 3.919,8.666 5.855,13.252"
           style="fill:#42c2f3;fill-opacity:1;fill-rule:evenodd;stroke:none"
           id="path4820"
           inkscape:connector-curvature="0" /><path
           d="m 502.373,126.603 c 3.657,2.014 7.184,4.032 10.564,6.075 -1.932,-4.484 -3.932,-8.82 -5.95,-13.036 -3.432,-2.061 -6.983,-4.129 -10.669,-6.173 2.051,4.236 4.063,8.617 6.055,13.134"
           style="fill:#52c7f4;fill-opacity:1;fill-rule:evenodd;stroke:none"
           id="path4822"
           inkscape:connector-curvature="0" /><path
           d="m 533.014,145.728 c 2.298,1.589 4.509,3.191 6.671,4.757 -1.722,-4.305 -3.499,-8.507 -5.287,-12.623 -2.245,-1.601 -4.543,-3.23 -6.899,-4.882 1.866,4.147 3.728,8.386 5.515,12.748"
           style="fill:#68cef6;fill-opacity:1;fill-rule:evenodd;stroke:none"
           id="path4824"
           inkscape:connector-curvature="0" /><path
           d="m 554.783,161.674 c 2.049,1.528 4.086,2.992 6.088,4.432 -1.383,-4.127 -2.781,-8.195 -4.229,-12.191 -2.128,-1.468 -4.274,-2.987 -6.441,-4.554 1.561,4.031 3.084,8.136 4.582,12.313"
           style="fill:#00ace3;fill-opacity:1;fill-rule:evenodd;stroke:none"
           id="path4826"
           inkscape:connector-curvature="0" /><path
           d="m 574.166,174.713 c 1.989,1.126 4.018,2.189 6.086,3.183 -0.966,-4.004 -1.964,-7.971 -2.949,-11.908 -2.208,-1.006 -4.369,-2.093 -6.495,-3.245 1.133,3.946 2.265,7.935 3.358,11.97"
           style="fill:#2abbf2;fill-opacity:1;fill-rule:evenodd;stroke:none"
           id="path4828"
           inkscape:connector-curvature="0" /><path
           d="m 601.824,175.425 -0.255,-1.987 c -2.814,-0.51 -5.537,-1.097 -8.17,-1.771 0.658,3.937 1.325,7.89 1.978,11.864 2.088,0.564 4.235,1.082 6.447,1.544 z"
           style="fill:#3ec1f3;fill-opacity:1;fill-rule:evenodd;stroke:none"
           id="path4830"
           inkscape:connector-curvature="0" /><path
           d="m -0.484,144.999 c 2.144,-0.468 4.243,-0.986 6.302,-1.549 0.633,-3.319 1.289,-6.621 1.889,-9.927 -2.664,0.654 -5.394,1.226 -8.191,1.711 z"
           style="fill:#24a9dd;fill-opacity:1;fill-rule:evenodd;stroke:none"
           id="path4832"
           inkscape:connector-curvature="0" /><path
           d="m 23.254,137.069 c 2.455,-1.12 4.877,-2.327 7.27,-3.605 1.093,-3.193 2.166,-6.364 3.241,-9.503 -2.528,1.228 -5.077,2.406 -7.664,3.489 -0.932,3.19 -1.888,6.393 -2.847,9.619"
           style="fill:#0fb2f0;fill-opacity:1;fill-rule:evenodd;stroke:none"
           id="path4834"
           inkscape:connector-curvature="0" /><path
           d="m 46.777,123.788 c 2.473,-1.596 4.969,-3.24 7.5,-4.925 1.441,-3.108 2.909,-6.156 4.329,-9.18 -2.618,1.666 -5.223,3.266 -7.799,4.83 -1.329,3.054 -2.678,6.144 -4.03,9.275"
           style="fill:#00adef;fill-opacity:1;fill-rule:evenodd;stroke:none"
           id="path4836"
           inkscape:connector-curvature="0" /><path
           d="m 72.658,106.65 c 2.96,-1.924 5.996,-3.874 9.122,-5.821 1.676,-3.022 3.351,-5.975 5.027,-8.858 -3.175,1.914 -6.264,3.829 -9.284,5.717 -1.616,2.928 -3.25,5.909 -4.865,8.962"
           style="fill:#00a5de;fill-opacity:1;fill-rule:evenodd;stroke:none"
           id="path4838"
           inkscape:connector-curvature="0" /><path
           d="m 105.168,87.232 c 3.353,-1.801 6.796,-3.588 10.335,-5.338 1.712,-2.914 3.436,-5.725 5.152,-8.454 -3.52,1.714 -6.949,3.464 -10.304,5.211 -1.722,2.782 -3.454,5.636 -5.183,8.581"
           style="fill:#25a7da;fill-opacity:1;fill-rule:evenodd;stroke:none"
           id="path4840"
           inkscape:connector-curvature="0" /><path
           d="m 145.65,68.571 c 4.908,-1.91 9.947,-3.753 15.113,-5.515 1.503,-2.736 3.008,-5.367 4.494,-7.905 -5.054,1.709 -9.996,3.482 -14.812,5.335 -1.592,2.6 -3.192,5.292 -4.795,8.085"
           style="fill:#00adef;fill-opacity:1;fill-rule:evenodd;stroke:none"
           id="path4842"
           inkscape:connector-curvature="0" /><path
           d="m 198.506,52.283 c 5.989,-1.388 12.082,-2.67 18.275,-3.805 0.967,-2.548 1.93,-4.993 2.888,-7.334 -5.982,1.089 -11.881,2.3 -17.68,3.643 -1.15,2.4 -2.328,4.889 -3.483,7.496"
           style="fill:#00adef;fill-opacity:1;fill-rule:evenodd;stroke:none"
           id="path4844"
           inkscape:connector-curvature="0" /><path
           d="m 260.414,42.792 c 6.667,-0.521 13.372,-0.875 20.1,-1.078 0.183,-2.437 0.33,-4.776 0.505,-7.018 -6.463,0.195 -12.905,0.536 -19.313,1.025 -0.417,2.259 -0.86,4.614 -1.292,7.071"
           style="fill:#00adef;fill-opacity:1;fill-rule:evenodd;stroke:none"
           id="path4846"
           inkscape:connector-curvature="0" /><path
           d="m 325.91,42.775 c 6.635,0.513 13.223,1.174 19.75,1.986 -0.676,-2.49 -1.373,-4.87 -2.032,-7.163 -6.281,-0.774 -12.621,-1.405 -19.001,-1.892 0.417,2.259 0.85,4.614 1.283,7.069"
           style="fill:#54c8f4;fill-opacity:1;fill-rule:evenodd;stroke:none"
           id="path4848"
           inkscape:connector-curvature="0" /><path
           d="m 387.84,52.24 c 5.912,1.371 11.716,2.854 17.399,4.449 -1.337,-2.658 -2.664,-5.216 -3.987,-7.672 -5.524,-1.53 -11.156,-2.962 -16.89,-4.274 1.156,2.399 2.302,4.902 3.478,7.497"
           style="fill:#04aee6;fill-opacity:1;fill-rule:evenodd;stroke:none"
           id="path4850"
           inkscape:connector-curvature="0" /><path
           d="m 440.729,68.512 c 4.819,1.875 9.504,3.814 14.062,5.804 -1.663,-2.848 -3.341,-5.593 -5.004,-8.253 -4.495,-1.94 -9.113,-3.817 -13.85,-5.633 1.587,2.599 3.191,5.289 4.792,8.082"
           style="fill:#00adef;fill-opacity:1;fill-rule:evenodd;stroke:none"
           id="path4852"
           inkscape:connector-curvature="0" /><path
           d="m 482.662,87.932 c 3.717,2.021 7.321,4.055 10.827,6.091 -1.718,-2.985 -3.431,-5.893 -5.146,-8.726 -3.52,-1.999 -7.143,-3.983 -10.863,-5.959 1.72,2.784 3.451,5.648 5.182,8.594"
           style="fill:#00adea;fill-opacity:1;fill-rule:evenodd;stroke:none"
           id="path4854"
           inkscape:connector-curvature="0" /><path
           d="m 514.874,107.307 c 2.52,1.645 4.982,3.278 7.399,4.889 -1.544,-3.082 -3.108,-6.095 -4.656,-9.06 -2.483,-1.584 -5.017,-3.174 -7.586,-4.805 1.601,2.937 3.224,5.924 4.843,8.976"
           style="fill:#00ace2;fill-opacity:1;fill-rule:evenodd;stroke:none"
           id="path4856"
           inkscape:connector-curvature="0" /><path
           d="m 539.677,123.738 c 2.437,1.571 4.858,3.093 7.274,4.559 -1.237,-3.16 -2.482,-6.279 -3.7,-9.373 -2.53,-1.428 -5.07,-2.906 -7.606,-4.46 1.333,3.054 2.681,6.141 4.032,9.274"
           style="fill:#65cdf5;fill-opacity:1;fill-rule:evenodd;stroke:none"
           id="path4858"
           inkscape:connector-curvature="0" /><path
           d="m 563.2,137.034 c 2.457,1.126 4.956,2.183 7.5,3.146 -0.832,-3.26 -1.635,-6.511 -2.437,-9.744 -2.685,-0.916 -5.32,-1.934 -7.913,-3.02 0.919,3.192 1.888,6.394 2.85,9.618"
           style="fill:#0096d2;fill-opacity:1;fill-rule:evenodd;stroke:none"
           id="path4860"
           inkscape:connector-curvature="0" /><path
           d="m 589.191,145.45 c 2.998,0.601 6.096,1.081 9.284,1.496 -0.344,-3.424 -0.677,-6.846 -0.971,-10.274 -3.345,-0.343 -6.597,-0.775 -9.753,-1.313 0.444,3.366 0.934,6.728 1.44,10.091"
           style="fill:#00adef;fill-opacity:1;fill-rule:evenodd;stroke:none"
           id="path4862"
           inkscape:connector-curvature="0" /><path
           d="m 1.502,109.331 c 3.503,-0.306 6.925,-0.712 10.264,-1.225 0.484,-3.784 0.929,-7.582 1.308,-11.4 -3.531,0.384 -7.145,0.664 -10.844,0.85 -0.184,3.947 -0.415,7.872 -0.728,11.775"
           style="fill:#2eaadb;fill-opacity:1;fill-rule:evenodd;stroke:none"
           id="path4864"
           inkscape:connector-curvature="0" /><path
           d="m 32.752,103.313 c 2.942,-0.904 5.844,-1.904 8.712,-2.97 1.043,-3.436 2.053,-6.864 2.994,-10.297 -3.025,0.966 -6.088,1.857 -9.196,2.643 -0.78,3.551 -1.621,7.087 -2.51,10.624"
           style="fill:#00adef;fill-opacity:1;fill-rule:evenodd;stroke:none"
           id="path4866"
           inkscape:connector-curvature="0" /><path
           d="m 60.587,91.996 c 2.849,-1.4 5.707,-2.851 8.579,-4.354 1.463,-3.118 2.904,-6.203 4.289,-9.279 -2.98,1.408 -5.958,2.751 -8.928,4.045 -1.263,3.186 -2.586,6.376 -3.94,9.588"
           style="fill:#41c1f2;fill-opacity:1;fill-rule:evenodd;stroke:none"
           id="path4868"
           inkscape:connector-curvature="0" /><path
           d="m 89.43,76.723 c 3.168,-1.723 6.388,-3.475 9.674,-5.225 1.715,-2.805 3.4,-5.563 5.049,-8.282 -3.331,1.657 -6.607,3.303 -9.842,4.915 -1.583,2.834 -3.226,5.687 -4.881,8.592"
           style="fill:#58c9f5;fill-opacity:1;fill-rule:evenodd;stroke:none"
           id="path4870"
           inkscape:connector-curvature="0" /><path
           d="m 122.967,59.353 c 3.332,-1.592 6.729,-3.17 10.19,-4.734 1.735,-2.5 3.444,-4.932 5.117,-7.313 -3.44,1.465 -6.816,2.958 -10.135,4.463 -1.697,2.47 -3.419,4.996 -5.172,7.584"
           style="fill:#5bcaf5;fill-opacity:1;fill-rule:evenodd;stroke:none"
           id="path4872"
           inkscape:connector-curvature="0" /><path
           d="m 161.97,42.944 c 4.586,-1.657 9.268,-3.244 14.041,-4.764 1.481,-2.181 2.928,-4.294 4.355,-6.335 -4.656,1.42 -9.222,2.923 -13.711,4.474 -1.537,2.14 -3.098,4.345 -4.685,6.625"
           style="fill:#51c7f4;fill-opacity:1;fill-rule:evenodd;stroke:none"
           id="path4874"
           inkscape:connector-curvature="0" /><path
           d="m 210.233,29.008 c 5.344,-1.172 10.761,-2.242 16.246,-3.194 0.923,-1.92 1.835,-3.764 2.727,-5.542 -5.281,0.894 -10.503,1.888 -15.66,2.985 -1.085,1.844 -2.2,3.754 -3.313,5.751"
           style="fill:#00adef;fill-opacity:1;fill-rule:evenodd;stroke:none"
           id="path4876"
           inkscape:connector-curvature="0" /><path
           d="m 264.729,21.097 c 5.802,-0.422 11.627,-0.721 17.47,-0.888 0.16,-1.793 0.313,-3.512 0.47,-5.163 -5.595,0.159 -11.176,0.441 -16.736,0.828 -0.39,1.67 -0.793,3.409 -1.204,5.223"
           style="fill:#00adef;fill-opacity:1;fill-rule:evenodd;stroke:none"
           id="path4878"
           inkscape:connector-curvature="0" /><path
           d="m 321.621,21.082 c 5.783,0.42 11.533,0.968 17.24,1.643 -0.644,-1.853 -1.287,-3.625 -1.904,-5.334 -5.477,-0.629 -10.99,-1.142 -16.532,-1.531 0.391,1.671 0.797,3.409 1.196,5.222"
           style="fill:#57c9f4;fill-opacity:1;fill-rule:evenodd;stroke:none"
           id="path4880"
           inkscape:connector-curvature="0" /><path
           d="m 376.132,28.971 c 5.292,1.161 10.511,2.417 15.644,3.765 -1.299,-2.069 -2.573,-4.062 -3.821,-5.992 -4.972,-1.259 -10.015,-2.444 -15.13,-3.521 1.083,1.843 2.19,3.756 3.307,5.748"
           style="fill:#00adef;fill-opacity:1;fill-rule:evenodd;stroke:none"
           id="path4882"
           inkscape:connector-curvature="0" /><path
           d="m 424.42,42.894 c 4.52,1.631 8.952,3.315 13.286,5.06 -1.669,-2.377 -3.31,-4.683 -4.927,-6.925 -4.265,-1.633 -8.607,-3.233 -13.042,-4.758 1.542,2.132 3.09,4.348 4.683,6.623"
           style="fill:#00adef;fill-opacity:1;fill-rule:evenodd;stroke:none"
           id="path4884"
           inkscape:connector-curvature="0" /><path
           d="m 464.859,59.975 c 3.723,1.793 7.359,3.619 10.922,5.432 -1.752,-2.694 -3.457,-5.347 -5.156,-7.933 -3.572,-1.722 -7.221,-3.429 -10.939,-5.12 1.689,2.488 3.424,5.02 5.173,7.621"
           style="fill:#00ace3;fill-opacity:1;fill-rule:evenodd;stroke:none"
           id="path4886"
           inkscape:connector-curvature="0" /><path
           d="m 498.179,77.31 c 2.72,1.474 5.399,2.945 8.05,4.38 -1.58,-2.998 -3.138,-5.958 -4.656,-8.891 -2.724,-1.347 -5.469,-2.728 -8.254,-4.116 1.57,2.848 3.204,5.714 4.86,8.627"
           style="fill:#00adef;fill-opacity:1;fill-rule:evenodd;stroke:none"
           id="path4888"
           inkscape:connector-curvature="0" /><path
           d="m 525.854,91.95 c 2.822,1.394 5.646,2.724 8.48,3.982 -1.225,-3.311 -2.417,-6.604 -3.55,-9.895 -2.969,-1.151 -5.924,-2.382 -8.874,-3.67 1.282,3.177 2.589,6.374 3.944,9.583"
           style="fill:#00a1e0;fill-opacity:1;fill-rule:evenodd;stroke:none"
           id="path4890"
           inkscape:connector-curvature="0" /><path
           d="m 553.687,103.285 c 2.963,0.902 5.968,1.742 9.031,2.472 -0.718,-3.643 -1.397,-7.293 -2.002,-10.958 -3.236,-0.615 -6.416,-1.329 -9.545,-2.133 0.788,3.545 1.618,7.087 2.516,10.619"
           style="fill:#00ace2;fill-opacity:1;fill-rule:evenodd;stroke:none"
           id="path4892"
           inkscape:connector-curvature="0" /><path
           d="m 584.918,109.32 c 3.583,0.311 7.262,0.532 11.035,0.634 -0.113,-4.025 -0.137,-12.155 -0.137,-12.155 0,0 -7.851,-0.06 -11.633,-0.249 0.181,3.946 0.44,7.87 0.735,11.77"
           style="fill:#5ccbf5;fill-opacity:1;fill-rule:evenodd;stroke:none"
           id="path4894"
           inkscape:connector-curvature="0" /><path
           d="m 2.574,70.247 c 0,0 7.989,0.037 11.967,-0.016 0.043,-4.066 0.017,-12.226 0.017,-12.226 H 2.574 Z"
           style="fill:#31bce7;fill-opacity:1;fill-rule:evenodd;stroke:none"
           id="path4896"
           inkscape:connector-curvature="0" /><path
           d="m 39.543,68.413 c 3.484,-0.487 6.923,-1.056 10.317,-1.709 0.654,-3.528 1.218,-7.096 1.693,-10.7 -3.561,0.5 -7.173,0.905 -10.833,1.216 -0.308,3.773 -0.707,7.505 -1.177,11.193"
           style="fill:#28baf2;fill-opacity:1;fill-rule:evenodd;stroke:none"
           id="path4898"
           inkscape:connector-curvature="0" /><path
           d="m 72.113,61.094 c 3.249,-0.99 6.492,-2.043 9.726,-3.165 1.091,-3.028 2.118,-6.079 3.056,-9.16 -3.353,0.962 -6.716,1.862 -10.091,2.7 -0.82,3.24 -1.717,6.447 -2.691,9.625"
           style="fill:#77d3f6;fill-opacity:1;fill-rule:evenodd;stroke:none"
           id="path4900"
           inkscape:connector-curvature="0" /><path
           d="m 104.045,49.643 c 3.377,-1.33 6.783,-2.685 10.22,-4.066 1.351,-2.553 2.644,-5.118 3.854,-7.706 -3.493,1.228 -6.956,2.444 -10.399,3.624 -1.158,2.734 -2.384,5.45 -3.675,8.148"
           style="fill:#00ace2;fill-opacity:1;fill-rule:evenodd;stroke:none"
           id="path4902"
           inkscape:connector-curvature="0" /><path
           d="m 138.547,36.011 c 3.303,-1.251 6.641,-2.514 10.027,-3.747 1.379,-2.132 2.712,-4.261 3.979,-6.4 -3.367,1.124 -6.701,2.246 -9.995,3.393 -1.278,2.259 -2.609,4.514 -4.011,6.754"
           style="fill:#00ade5;fill-opacity:1;fill-rule:evenodd;stroke:none"
           id="path4904"
           inkscape:connector-curvature="0" /><path
           d="m 176.069,23.021 c 4.284,-1.303 8.628,-2.564 13.035,-3.76 1.167,-1.746 2.308,-3.478 3.384,-5.219 -4.31,1.091 -8.57,2.229 -12.774,3.424 -1.162,1.854 -2.391,3.696 -3.645,5.555"
           style="fill:#44c3f3;fill-opacity:1;fill-rule:evenodd;stroke:none"
           id="path4906"
           inkscape:connector-curvature="0" /><path
           d="m 220.163,12.06 c 4.781,-0.92 9.61,-1.751 14.483,-2.497 0.732,-1.458 1.432,-2.909 2.102,-4.354 -4.714,0.678 -9.39,1.44 -14.024,2.272 -0.812,1.524 -1.674,3.042 -2.561,4.579"
           style="fill:#2ebcf2;fill-opacity:1;fill-rule:evenodd;stroke:none"
           id="path4908"
           inkscape:connector-curvature="0" /><path
           d="m 268.329,5.892 c 5.078,-0.324 10.172,-0.552 15.275,-0.69 0.122,-1.333 0.246,-2.651 0.36,-3.963 -4.914,0.117 -9.819,0.323 -14.71,0.626 -0.297,1.334 -0.599,2.673 -0.925,4.027"
           style="fill:#3cc0f3;fill-opacity:1;fill-rule:evenodd;stroke:none"
           id="path4910"
           inkscape:connector-curvature="0" /><path
           d="m 318.043,5.881 c 5.065,0.322 10.109,0.741 15.127,1.275 -0.51,-1.389 -0.992,-2.769 -1.464,-4.139 -4.838,-0.48 -9.701,-0.866 -14.581,-1.161 0.297,1.332 0.596,2.673 0.918,4.025"
           style="fill:#7ad4f7;fill-opacity:1;fill-rule:evenodd;stroke:none"
           id="path4912"
           inkscape:connector-curvature="0" /><path
           d="m 366.22,12.028 c 4.747,0.905 9.444,1.896 14.089,2.952 -1.024,-1.623 -2.018,-3.227 -2.961,-4.836 -4.516,-0.957 -9.078,-1.862 -13.684,-2.689 0.814,1.523 1.667,3.042 2.556,4.573"
           style="fill:#00adef;fill-opacity:1;fill-rule:evenodd;stroke:none"
           id="path4914"
           inkscape:connector-curvature="0" /><path
           d="m 410.328,22.98 c 4.242,1.289 8.423,2.625 12.537,4.004 -1.322,-1.975 -2.606,-3.942 -3.836,-5.917 -4.059,-1.253 -8.179,-2.451 -12.344,-3.638 1.159,1.854 2.381,3.698 3.643,5.551"
           style="fill:#7dd5f7;fill-opacity:1;fill-rule:evenodd;stroke:none"
           id="path4916"
           inkscape:connector-curvature="0" /><path
           d="m 449.271,36.503 c 3.715,1.426 7.378,2.855 10.993,4.29 -1.385,-2.398 -2.712,-4.803 -3.976,-7.219 -3.636,-1.292 -7.309,-2.584 -11.028,-3.87 1.273,2.276 2.628,4.532 4.011,6.799"
           style="fill:#2bbbf2;fill-opacity:1;fill-rule:evenodd;stroke:none"
           id="path4918"
           inkscape:connector-curvature="0" /><path
           d="m 483.64,50.096 c 2.921,1.14 5.821,2.274 8.713,3.363 -1.224,-2.84 -2.375,-5.7 -3.44,-8.588 -2.966,-0.961 -5.939,-1.952 -8.926,-2.971 1.147,2.752 2.363,5.483 3.653,8.196"
           style="fill:#6acff6;fill-opacity:1;fill-rule:evenodd;stroke:none"
           id="path4920"
           inkscape:connector-curvature="0" /><path
           d="m 514.317,61.064 c 3.242,0.992 6.5,1.924 9.78,2.777 -0.852,-3.327 -1.597,-6.696 -2.282,-10.092 -3.42,-0.696 -6.817,-1.466 -10.193,-2.306 0.816,3.239 1.712,6.448 2.695,9.621"
           style="fill:#5bcaf5;fill-opacity:1;fill-rule:evenodd;stroke:none"
           id="path4922"
           inkscape:connector-curvature="0" /><path
           d="m 546.879,68.398 c 3.524,0.486 7.107,0.874 10.749,1.178 -0.278,-3.853 -0.515,-7.751 -0.631,-11.695 -3.827,-0.134 -7.596,-0.347 -11.3,-0.671 0.308,3.771 0.705,7.502 1.182,11.188"
           style="fill:#75d3f6;fill-opacity:1;fill-rule:evenodd;stroke:none"
           id="path4924"
           inkscape:connector-curvature="0" /><path
           d="m 583.832,70.247 h 11.984 V 58.005 h -11.984 z"
           style="fill:#35bef2;fill-opacity:1;fill-rule:evenodd;stroke:none"
           id="path4926"
           inkscape:connector-curvature="0" /><path
           d="M 2.574,30.451 H 14.558 V 18.208 H 2.574 Z"
           style="fill:#57c9f4;fill-opacity:1;fill-rule:evenodd;stroke:none"
           id="path4928"
           inkscape:connector-curvature="0" /><path
           d="m 41.524,30.451 c 0,0 7.989,0.025 11.944,-0.044 0.069,-4.037 0.041,-12.199 0.041,-12.199 H 41.524 Z"
           style="fill:#0bb1f0;fill-opacity:1;fill-rule:evenodd;stroke:none"
           id="path4930"
           inkscape:connector-curvature="0" /><path
           d="m 79.052,28.629 c 3.67,-0.445 7.32,-0.942 10.947,-1.52 0.563,-3.396 1.044,-6.861 1.402,-10.403 -3.756,0.385 -7.537,0.701 -11.347,0.939 -0.234,3.736 -0.575,7.396 -1.002,10.984"
           style="fill:#00adef;fill-opacity:1;fill-rule:evenodd;stroke:none"
           id="path4932"
           inkscape:connector-curvature="0" /><path
           d="m 114.297,22.408 c 3.607,-0.803 7.218,-1.647 10.837,-2.528 0.864,-2.808 1.648,-5.682 2.325,-8.625 -3.685,0.714 -7.373,1.366 -11.057,1.998 -0.61,3.121 -1.305,6.174 -2.105,9.155"
           style="fill:#5bcaf5;fill-opacity:1;fill-rule:evenodd;stroke:none"
           id="path4934"
           inkscape:connector-curvature="0" /><path
           d="m 150.044,13.61 c 3.305,-0.848 6.63,-1.694 9.978,-2.537 0.952,-2.305 1.826,-4.673 2.624,-7.105 -3.351,0.714 -6.683,1.429 -10.001,2.135 -0.784,2.566 -1.669,5.063 -2.601,7.507"
           style="fill:#18b5f1;fill-opacity:1;fill-rule:evenodd;stroke:none"
           id="path4936"
           inkscape:connector-curvature="0" /><path
           d="m 198.425,-3.23 c -3.126,0.57 -6.235,1.159 -9.327,1.758 -0.758,2.117 -1.579,4.175 -2.475,6.166 4.063,-0.908 8.159,-1.791 12.293,-2.631 0.767,-1.712 1.475,-3.479 2.133,-5.293 z"
           style="fill:#00adef;fill-opacity:1;fill-rule:evenodd;stroke:none"
           id="path4938"
           inkscape:connector-curvature="0" /><path
           d="m 227.685,-3.23 c -0.028,0.074 -0.056,0.147 -0.084,0.221 0.498,-0.075 0.997,-0.148 1.496,-0.221 z"
           style="fill:#7bd5f7;fill-opacity:1;fill-rule:evenodd;stroke:none"
           id="path4940"
           inkscape:connector-curvature="0" /><path
           d="m 358.717,-3.23 c 0.025,0.066 0.052,0.134 0.077,0.201 4.338,0.643 8.647,1.327 12.921,2.083 -0.314,-0.752 -0.619,-1.514 -0.916,-2.284 z"
           style="fill:#64cdf5;fill-opacity:1;fill-rule:evenodd;stroke:none"
           id="path4942"
           inkscape:connector-curvature="0" /><path
           d="m 399.781,4.667 c 4.036,0.901 8.036,1.835 12.003,2.78 -0.937,-2.123 -1.788,-4.311 -2.578,-6.559 -3.937,-0.812 -7.904,-1.605 -11.898,-2.382 0.756,2.114 1.587,4.164 2.473,6.161"
           style="fill:#72d2f6;fill-opacity:1;fill-rule:evenodd;stroke:none"
           id="path4944"
           inkscape:connector-curvature="0" /><path
           d="m 437.78,13.941 c 3.744,0.959 7.462,1.911 11.162,2.847 -0.919,-2.616 -1.755,-5.298 -2.503,-8.049 -3.735,-0.766 -7.487,-1.552 -11.254,-2.361 0.779,2.588 1.649,5.108 2.595,7.563"
           style="fill:#30bcf2;fill-opacity:1;fill-rule:evenodd;stroke:none"
           id="path4946"
           inkscape:connector-curvature="0" /><path
           d="m 473.471,22.684 c 3.143,0.694 6.288,1.348 9.433,1.985 -0.692,-3.165 -1.312,-6.394 -1.831,-9.695 -3.231,-0.468 -6.46,-0.965 -9.68,-1.506 0.584,3.145 1.301,6.209 2.078,9.216"
           style="fill:#00ace3;fill-opacity:1;fill-rule:evenodd;stroke:none"
           id="path4948"
           inkscape:connector-curvature="0" /><path
           d="m 507.364,28.616 c 3.689,0.437 7.41,0.81 11.164,1.096 -0.282,-3.782 -0.475,-7.64 -0.556,-11.573 -3.909,-0.074 -7.78,-0.25 -11.616,-0.503 0.23,3.736 0.581,7.394 1.008,10.98"
           style="fill:#00adef;fill-opacity:1;fill-rule:evenodd;stroke:none"
           id="path4950"
           inkscape:connector-curvature="0" /><path
           d="m 544.883,30.451 h 11.985 V 18.208 h -11.985 z"
           style="fill:#5fccf5;fill-opacity:1;fill-rule:evenodd;stroke:none"
           id="path4952"
           inkscape:connector-curvature="0" /><path
           d="m 583.832,30.451 h 11.984 V 18.208 h -11.984 z"
           style="fill:#00a6e6;fill-opacity:1;fill-rule:evenodd;stroke:none"
           id="path4954"
           inkscape:connector-curvature="0" /></g></g></g></svg>